# Blender 4.0.0
# www.blender.org
mtllib Cafe_Test_Mesh.mtl
o Cafe_Test_Mesh
v 13.000000 3.001000 -0.000000
v 13.146450 3.001000 0.353553
v 13.146450 0.001000 0.353553
v 13.000000 0.001000 -0.000000
v 13.146450 3.001000 0.353553
v 13.500000 3.001000 0.500000
v 13.500000 0.001000 0.500000
v 13.146450 0.001000 0.353553
v 13.500000 3.001000 0.500000
v 13.853550 3.001000 0.353553
v 13.853550 0.001000 0.353553
v 13.500000 0.001000 0.500000
v 13.853550 3.001000 0.353553
v 14.000000 3.001000 -0.000000
v 14.000000 0.001000 -0.000000
v 13.853550 0.001000 0.353553
v 13.150000 1.501000 5.000000
v 13.252510 1.748487 5.000000
v 13.500000 1.851000 5.000000
v 13.747490 1.748487 5.000000
v 13.850000 1.501000 5.000000
v 13.747490 1.253513 5.000000
v 13.500000 1.151000 5.000000
v 13.252510 1.253513 5.000000
v 13.150000 1.501000 5.000000
v 13.150000 1.501000 -5.000000
v 13.252510 1.748487 -5.000000
v 13.252510 1.748487 5.000000
v 13.252510 1.748487 5.000000
v 13.252510 1.748487 -5.000000
v 13.500000 1.851000 -5.000000
v 13.500000 1.851000 5.000000
v 13.252510 1.253513 5.000000
v 13.252510 1.253513 -5.000000
v 13.150000 1.501000 -5.000000
v 13.150000 1.501000 5.000000
v 13.500000 1.151000 5.000000
v 13.500000 1.151000 -5.000000
v 13.252510 1.253513 -5.000000
v 13.252510 1.253513 5.000000
v 13.747490 1.253513 5.000000
v 13.747490 1.253513 -5.000000
v 13.500000 1.151000 -5.000000
v 13.500000 1.151000 5.000000
v 13.850000 1.501000 5.000000
v 13.850000 1.501000 -5.000000
v 13.747490 1.253513 -5.000000
v 13.747490 1.253513 5.000000
v 13.747490 1.748487 5.000000
v 13.747490 1.748487 -5.000000
v 13.850000 1.501000 -5.000000
v 13.850000 1.501000 5.000000
v 13.500000 1.851000 5.000000
v 13.500000 1.851000 -5.000000
v 13.747490 1.748487 -5.000000
v 13.747490 1.748487 5.000000
v 15.000000 1.860000 2.500000
v 15.000000 1.860000 4.500000
v 15.000000 2.060000 4.500000
v 15.000000 2.060000 2.500000
v -15.000000 2.060000 2.500000
v 15.000000 2.060000 2.500000
v 15.000000 2.060000 4.500000
v -15.000000 2.060000 4.500000
v -15.000000 2.060000 4.500000
v 15.000000 2.060000 4.500000
v 15.000000 1.860000 4.500000
v -15.000000 1.860000 4.500000
v -15.000000 1.860000 2.500000
v 15.000000 1.860000 2.500000
v 15.000000 2.060000 2.500000
v -15.000000 2.060000 2.500000
v -15.000000 1.860000 4.500000
v 15.000000 1.860000 4.500000
v 15.000000 1.860000 2.500000
v -15.000000 1.860000 2.500000
v -15.000000 3.201000 2.500000
v 15.000000 3.201000 2.500000
v 15.000000 3.001000 2.500000
v -15.000000 3.001000 2.500000
v -13.000000 3.001000 -0.000000
v -13.000000 0.001000 -0.000000
v -13.146450 0.001000 0.353553
v -13.146450 3.001000 0.353553
v -13.146450 3.001000 0.353553
v -13.146450 0.001000 0.353553
v -13.500000 0.001000 0.500000
v -13.500000 3.001000 0.500000
v -13.500000 3.001000 0.500000
v -13.500000 0.001000 0.500000
v -13.853550 0.001000 0.353553
v -13.853550 3.001000 0.353553
v -13.853550 3.001000 0.353553
v -13.853550 0.001000 0.353553
v -14.000000 0.001000 -0.000000
v -14.000000 3.001000 -0.000000
v -13.150000 1.501000 5.000000
v -13.252510 1.253513 5.000000
v -13.500000 1.151000 5.000000
v -13.747490 1.253513 5.000000
v -13.850000 1.501000 5.000000
v -13.747490 1.748487 5.000000
v -13.500000 1.851000 5.000000
v -13.252510 1.748487 5.000000
v -13.150000 1.501000 5.000000
v -13.252510 1.748487 5.000000
v -13.252510 1.748487 -5.000000
v -13.150000 1.501000 -5.000000
v -13.252510 1.748487 5.000000
v -13.500000 1.851000 5.000000
v -13.500000 1.851000 -5.000000
v -13.252510 1.748487 -5.000000
v -13.252510 1.253513 5.000000
v -13.150000 1.501000 5.000000
v -13.150000 1.501000 -5.000000
v -13.252510 1.253513 -5.000000
v -13.500000 1.151000 5.000000
v -13.252510 1.253513 5.000000
v -13.252510 1.253513 -5.000000
v -13.500000 1.151000 -5.000000
v -13.747490 1.253513 5.000000
v -13.500000 1.151000 5.000000
v -13.500000 1.151000 -5.000000
v -13.747490 1.253513 -5.000000
v -13.850000 1.501000 5.000000
v -13.747490 1.253513 5.000000
v -13.747490 1.253513 -5.000000
v -13.850000 1.501000 -5.000000
v -13.747490 1.748487 5.000000
v -13.850000 1.501000 5.000000
v -13.850000 1.501000 -5.000000
v -13.747490 1.748487 -5.000000
v -13.500000 1.851000 5.000000
v -13.747490 1.748487 5.000000
v -13.747490 1.748487 -5.000000
v -13.500000 1.851000 -5.000000
v -15.000000 1.860000 2.500000
v -15.000000 2.060000 2.500000
v -15.000000 2.060000 4.500000
v -15.000000 1.860000 4.500000
v 15.000000 3.001000 -2.500000
v 15.000000 3.001000 2.500000
v 15.000000 3.201000 2.500000
v 15.000000 3.201000 -2.500000
v 13.000000 0.001000 -0.000000
v 13.146450 0.001000 0.353553
v 13.500000 0.001000 0.500000
v 13.853550 0.001000 0.353553
v 14.000000 0.001000 -0.000000
v 13.853550 0.001000 -0.353553
v 13.500000 0.001000 -0.500000
v 13.146450 0.001000 -0.353553
v 15.000000 3.201000 -2.500000
v 15.000000 3.201000 2.500000
v -15.000000 3.201000 2.500000
v -15.000000 3.201000 -2.500000
v -15.000000 3.001000 -2.500000
v -15.000000 3.001000 2.500000
v 15.000000 3.001000 2.500000
v 15.000000 3.001000 -2.500000
v -15.000000 3.001000 -2.500000
v -15.000000 3.001000 2.500000
v 15.000000 3.001000 2.500000
v 15.000000 3.001000 -2.500000
v -15.000000 3.201000 -2.500000
v -15.000000 3.201000 2.500000
v -15.000000 3.001000 2.500000
v -15.000000 3.001000 -2.500000
v -14.000000 0.001000 -0.000000
v -13.853550 0.001000 0.353553
v -13.500000 0.001000 0.500000
v -13.146450 0.001000 0.353553
v -13.000000 0.001000 -0.000000
v -13.146450 0.001000 -0.353553
v -13.500000 0.001000 -0.500000
v -13.853550 0.001000 -0.353553
v 13.146450 3.001000 -0.353554
v 13.146450 0.001000 -0.353553
v 13.500000 0.001000 -0.500000
v 13.500000 3.001000 -0.500000
v 13.500000 3.001000 -0.500000
v 13.500000 0.001000 -0.500000
v 13.853550 0.001000 -0.353553
v 13.853550 3.001000 -0.353554
v 13.150000 1.501000 -5.000000
v 13.252510 1.253513 -5.000000
v 13.500000 1.151000 -5.000000
v 13.747490 1.253513 -5.000000
v 13.850000 1.501000 -5.000000
v 13.747490 1.748487 -5.000000
v 13.500000 1.851000 -5.000000
v 13.252510 1.748487 -5.000000
v 15.000000 1.860000 -2.500000
v 15.000000 2.060000 -2.500000
v 15.000000 2.060000 -4.500000
v 15.000000 1.860000 -4.500000
v -15.000000 2.060000 -2.500000
v -15.000000 2.060000 -4.500000
v 15.000000 2.060000 -4.500000
v 15.000000 2.060000 -2.500000
v -15.000000 2.060000 -4.500000
v -15.000000 1.860000 -4.500000
v 15.000000 1.860000 -4.500000
v 15.000000 2.060000 -4.500000
v -15.000000 1.860000 -2.500000
v -15.000000 2.060000 -2.500000
v 15.000000 2.060000 -2.500000
v 15.000000 1.860000 -2.500000
v -15.000000 1.860000 -4.500000
v -15.000000 1.860000 -2.500000
v 15.000000 1.860000 -2.500000
v 15.000000 1.860000 -4.500000
v -15.000000 3.201000 -2.500000
v -15.000000 3.001000 -2.500000
v 15.000000 3.001000 -2.500000
v 15.000000 3.201000 -2.500000
v -13.146450 3.001000 -0.353554
v -13.500000 3.001000 -0.500000
v -13.500000 0.001000 -0.500000
v -13.146450 0.001000 -0.353553
v -13.500000 3.001000 -0.500000
v -13.853550 3.001000 -0.353554
v -13.853550 0.001000 -0.353553
v -13.500000 0.001000 -0.500000
v -13.150000 1.501000 -5.000000
v -13.252510 1.748487 -5.000000
v -13.500000 1.851000 -5.000000
v -13.747490 1.748487 -5.000000
v -13.850000 1.501000 -5.000000
v -13.747490 1.253513 -5.000000
v -13.500000 1.151000 -5.000000
v -13.252510 1.253513 -5.000000
v -15.000000 1.860000 -2.500000
v -15.000000 1.860000 -4.500000
v -15.000000 2.060000 -4.500000
v -15.000000 2.060000 -2.500000
v 13.000000 3.001000 -0.000000
v 13.000000 0.001000 -0.000000
v 13.146450 0.001000 -0.353553
v 13.146450 3.001000 -0.353554
v 13.853550 3.001000 -0.353554
v 13.853550 0.001000 -0.353553
v 14.000000 0.001000 -0.000000
v 14.000000 3.001000 -0.000000
v -13.000000 3.001000 -0.000000
v -13.146450 3.001000 -0.353554
v -13.146450 0.001000 -0.353553
v -13.000000 0.001000 -0.000000
v -13.853550 3.001000 -0.353554
v -14.000000 3.001000 -0.000000
v -14.000000 0.001000 -0.000000
v -13.853550 0.001000 -0.353553
vn 1.0000 -0.0000 -0.0000
vn -0.0000 1.0000 -0.0000
vn -0.0000 -0.0000 1.0000
vn -0.0000 -0.0000 -1.0000
vn -0.0000 -1.0000 -0.0000
vn -1.0000 -0.0000 -0.0000
vn -0.9239 -0.0000 0.3827
vn -0.3827 -0.0000 0.9239
vn 0.3827 -0.0000 0.9239
vn 0.9239 -0.0000 0.3827
vn -0.9239 0.3827 -0.0000
vn -0.3827 0.9239 -0.0000
vn -0.9239 -0.3827 -0.0000
vn -0.3827 -0.9239 -0.0000
vn 0.3827 -0.9239 -0.0000
vn 0.9239 -0.3827 -0.0000
vn 0.9239 0.3827 -0.0000
vn 0.3827 0.9239 -0.0000
vn -0.3827 -0.0000 -0.9239
vn 0.3827 -0.0000 -0.9239
vn -0.9239 -0.0000 -0.3827
vn 0.9239 -0.0000 -0.3827
vt -4.500000 0.940000
vt -4.500000 1.140000
vt -2.500000 1.140000
vt -2.500000 0.940000
vt -15.000000 -4.500000
vt -15.000000 -2.500000
vt 15.000000 -2.500000
vt 15.000000 -4.500000
vt 15.000000 1.140000
vt 15.000000 0.940000
vt -15.000000 0.940000
vt -15.000000 1.140000
vt 15.000000 2.500000
vt 15.000000 4.500000
vt -15.000000 4.500000
vt -15.000000 2.500000
vt 15.000000 -0.001000
vt 15.000000 -0.201000
vt -15.000000 -0.201000
vt -15.000000 -0.001000
vt 4.500000 0.940000
vt 2.500000 0.940000
vt 2.500000 1.140000
vt 4.500000 1.140000
vt -2.500000 -0.201000
vt -2.500000 -0.001000
vt 2.500000 -0.001000
vt 2.500000 -0.201000
vt 13.500000 0.500000
vt 13.146450 0.353553
vt 13.000000 0.000000
vt 13.853550 0.353553
vt 14.000000 0.000000
vt 13.853550 -0.353553
vt 13.500000 -0.500000
vt 13.146450 -0.353553
vt -13.500000 0.500000
vt -13.853550 0.353553
vt -14.000000 0.000000
vt -13.146450 0.353553
vt -13.000000 0.000000
vt -13.146450 -0.353553
vt -13.500000 -0.500000
vt -13.853550 -0.353553
vt 0.353553 2.999000
vt 0.353553 -0.001000
vt -0.000000 -0.001000
vt -0.000000 2.999000
vt 13.500000 2.999000
vt 13.500000 -0.001000
vt 13.146450 -0.001000
vt 13.146450 2.999000
vt 13.853550 2.999000
vt 13.853550 -0.001000
vt 0.000000 2.999000
vt 0.000000 -0.001000
vt -0.353553 -0.001000
vt -0.353553 2.999000
vt -13.500000 1.149000
vt -13.252510 1.251513
vt -13.150000 1.499000
vt -13.747490 1.251513
vt -13.850000 1.499000
vt -13.747490 1.746487
vt -13.500000 1.849000
vt -13.252510 1.746487
vt -5.000000 1.251513
vt -5.000000 1.499000
vt 5.000000 1.499000
vt 5.000000 1.251513
vt -13.500000 5.000000
vt -13.252510 5.000000
vt -13.252510 -5.000000
vt -13.500000 -5.000000
vt -5.000000 1.746487
vt 5.000000 1.746487
vt 13.252510 -5.000000
vt 13.500000 -5.000000
vt 13.500000 5.000000
vt 13.252510 5.000000
vt 13.747490 -5.000000
vt 13.747490 5.000000
vt -13.747490 5.000000
vt -13.747490 -5.000000
vt -13.500000 2.999000
vt -13.146450 2.999000
vt -13.146450 -0.001000
vt -13.500000 -0.001000
vt -13.853550 2.999000
vt -13.853550 -0.001000
vt 13.500000 1.149000
vt 13.252510 1.251513
vt 13.150000 1.499000
vt 13.747490 1.251513
vt 13.850000 1.499000
vt 13.747490 1.746487
vt 13.500000 1.849000
vt 13.252510 1.746487
s 0
usemtl Material
f 59/1/1 58/2/1 57/3/1
f 60/4/1 59/1/1 57/3/1
f 63/5/2 62/6/2 61/7/2
f 64/8/2 63/5/2 61/7/2
f 67/9/3 66/10/3 65/11/3
f 68/12/3 67/9/3 65/11/3
f 71/11/4 70/12/4 69/9/4
f 72/10/4 71/11/4 69/9/4
f 75/13/5 74/14/5 73/15/5
f 76/16/5 75/13/5 73/15/5
f 79/17/3 78/18/3 77/19/3
f 80/20/3 79/17/3 77/19/3
f 139/21/6 138/22/6 137/23/6
f 140/24/6 139/21/6 137/23/6
f 143/25/1 142/26/1 141/27/1
f 144/28/1 143/25/1 141/27/1
f 155/7/2 154/6/2 153/16/2
f 156/13/2 155/7/2 153/16/2
f 159/13/5 158/16/5 157/6/5
f 160/7/5 159/13/5 157/6/5
f 163/13/5 162/16/5 161/6/5
f 164/7/5 163/13/5 161/6/5
f 167/27/6 166/28/6 165/25/6
f 168/26/6 167/27/6 165/25/6
f 195/21/1 194/22/1 193/23/1
f 196/24/1 195/21/1 193/23/1
f 199/15/2 198/14/2 197/13/2
f 200/16/2 199/15/2 197/13/2
f 203/12/4 202/9/4 201/10/4
f 204/11/4 203/12/4 201/10/4
f 207/10/3 206/11/3 205/12/3
f 208/9/3 207/10/3 205/12/3
f 211/7/5 210/6/5 209/5/5
f 212/8/5 211/7/5 209/5/5
f 215/20/4 214/17/4 213/18/4
f 216/19/4 215/20/4 213/18/4
f 235/1/6 234/2/6 233/3/6
f 236/4/6 235/1/6 233/3/6
usemtl Material.001
f 147/29/5 146/30/5 145/31/5
f 148/32/5 147/29/5 145/31/5
f 149/33/5 148/32/5 145/31/5
f 150/34/5 149/33/5 145/31/5
f 151/35/5 150/34/5 145/31/5
f 152/36/5 151/35/5 145/31/5
f 171/37/5 170/38/5 169/39/5
f 172/40/5 171/37/5 169/39/5
f 173/41/5 172/40/5 169/39/5
f 174/42/5 173/41/5 169/39/5
f 175/43/5 174/42/5 169/39/5
f 176/44/5 175/43/5 169/39/5
f 3/45/7 2/46/7 1/47/7
f 4/48/7 3/45/7 1/47/7
f 7/49/8 6/50/8 5/51/8
f 8/52/8 7/49/8 5/51/8
f 11/53/9 10/54/9 9/50/9
f 12/49/9 11/53/9 9/50/9
f 15/55/10 14/56/10 13/57/10
f 16/58/10 15/55/10 13/57/10
f 19/59/3 18/60/3 17/61/3
f 20/62/3 19/59/3 17/61/3
f 21/63/3 20/62/3 17/61/3
f 22/64/3 21/63/3 17/61/3
f 23/65/3 22/64/3 17/61/3
f 24/66/3 23/65/3 17/61/3
f 27/67/11 26/68/11 25/69/11
f 28/70/11 27/67/11 25/69/11
f 31/71/12 30/72/12 29/73/12
f 32/74/12 31/71/12 29/73/12
f 35/68/13 34/75/13 33/76/13
f 36/69/13 35/68/13 33/76/13
f 39/77/14 38/78/14 37/79/14
f 40/80/14 39/77/14 37/79/14
f 43/78/15 42/81/15 41/82/15
f 44/79/15 43/78/15 41/82/15
f 47/76/16 46/69/16 45/68/16
f 48/75/16 47/76/16 45/68/16
f 51/69/17 50/70/17 49/67/17
f 52/68/17 51/69/17 49/67/17
f 55/83/18 54/71/18 53/74/18
f 56/84/18 55/83/18 53/74/18
f 83/58/10 82/55/10 81/56/10
f 84/57/10 83/58/10 81/56/10
f 87/85/9 86/86/9 85/87/9
f 88/88/9 87/85/9 85/87/9
f 91/89/8 90/85/8 89/88/8
f 92/90/8 91/89/8 89/88/8
f 95/48/7 94/45/7 93/46/7
f 96/47/7 95/48/7 93/46/7
f 99/65/3 98/66/3 97/61/3
f 100/64/3 99/65/3 97/61/3
f 101/63/3 100/64/3 97/61/3
f 102/62/3 101/63/3 97/61/3
f 103/59/3 102/62/3 97/61/3
f 104/60/3 103/59/3 97/61/3
f 107/70/17 106/67/17 105/68/17
f 108/69/17 107/70/17 105/68/17
f 111/79/18 110/78/18 109/77/18
f 112/80/18 111/79/18 109/77/18
f 115/69/16 114/68/16 113/75/16
f 116/76/16 115/69/16 113/75/16
f 119/73/15 118/72/15 117/71/15
f 120/74/15 119/73/15 117/71/15
f 123/74/14 122/71/14 121/83/14
f 124/84/14 123/74/14 121/83/14
f 127/75/13 126/76/13 125/69/13
f 128/68/13 127/75/13 125/69/13
f 131/68/11 130/69/11 129/70/11
f 132/67/11 131/68/11 129/70/11
f 135/82/12 134/81/12 133/78/12
f 136/79/12 135/82/12 133/78/12
f 179/85/19 178/86/19 177/87/19
f 180/88/19 179/85/19 177/87/19
f 183/89/20 182/85/20 181/88/20
f 184/90/20 183/89/20 181/88/20
f 187/65/4 186/66/4 185/61/4
f 188/64/4 187/65/4 185/61/4
f 189/63/4 188/64/4 185/61/4
f 190/62/4 189/63/4 185/61/4
f 191/59/4 190/62/4 185/61/4
f 192/60/4 191/59/4 185/61/4
f 219/49/20 218/50/20 217/51/20
f 220/52/20 219/49/20 217/51/20
f 223/53/19 222/54/19 221/50/19
f 224/49/19 223/53/19 221/50/19
f 227/91/4 226/92/4 225/93/4
f 228/94/4 227/91/4 225/93/4
f 229/95/4 228/94/4 225/93/4
f 230/96/4 229/95/4 225/93/4
f 231/97/4 230/96/4 225/93/4
f 232/98/4 231/97/4 225/93/4
f 239/58/21 238/55/21 237/56/21
f 240/57/21 239/58/21 237/56/21
f 243/48/22 242/45/22 241/46/22
f 244/47/22 243/48/22 241/46/22
f 247/45/22 246/46/22 245/47/22
f 248/48/22 247/45/22 245/47/22
f 251/55/21 250/56/21 249/57/21
f 252/58/21 251/55/21 249/57/21
